<svg width="21" height="22" viewBox="0 0 21 22" fill="none" xmlns="http://www.w3.org/2000/svg">
<g opacity="0.84" clip-path="url(#clip0_493_4887)">
<path d="M0.138794 10.6474L4.91141 5.64743C5.08285 5.43771 5.38415 5.41326 5.58434 5.59291C5.78454 5.77251 5.80787 6.08816 5.63639 6.29788C5.62039 6.31743 5.603 6.3357 5.58434 6.35241L1.62784 10.5023H20.5228C20.7863 10.5023 21 10.7262 21 11.0024C21 11.2785 20.7863 11.5023 20.5228 11.5023H1.62784L5.58434 15.6472C5.78454 15.8269 5.80787 16.1425 5.63639 16.3522C5.46491 16.562 5.16365 16.5864 4.96346 16.4067C4.9448 16.39 4.92737 16.3718 4.91141 16.3522L0.138752 11.3523C-0.0462666 11.1574 -0.0462666 10.8424 0.138794 10.6474Z" fill="#5D5D5D"/>
</g>
<defs>
<clipPath id="clip0_493_4887">
<rect width="21" height="22" fill="white" transform="matrix(-1 0 0 1 21 0)"/>
</clipPath>
</defs>
</svg>
