<svg width="11" height="18" viewBox="0 0 11 18" fill="none" xmlns="http://www.w3.org/2000/svg">
<g opacity="0.28">
<path d="M5.5 14.3336C5.43968 14.3339 5.37989 14.3224 5.32405 14.2996C5.2682 14.2768 5.21741 14.2431 5.17459 14.2007L2.42459 11.4507C2.33828 11.3644 2.28979 11.2473 2.28979 11.1252C2.28979 11.0032 2.33828 10.8861 2.42459 10.7998C2.51089 10.7135 2.62795 10.665 2.75 10.665C2.87206 10.665 2.98911 10.7135 3.07542 10.7998L5.5 13.229L7.92459 10.8044C8.01227 10.7293 8.12505 10.6901 8.2404 10.6945C8.35575 10.699 8.46518 10.7468 8.5468 10.8284C8.62843 10.9101 8.67625 11.0195 8.6807 11.1348C8.68516 11.2502 8.64592 11.363 8.57084 11.4507L5.82084 14.2007C5.73547 14.2853 5.62024 14.3331 5.5 14.3336Z" fill="black" fill-opacity="0.74"/>
</g>
<g opacity="0.72">
<path d="M5.5 3.66642C5.43968 3.66607 5.37989 3.67763 5.32405 3.70044C5.2682 3.72325 5.21741 3.75686 5.17459 3.79934L2.42459 6.54934C2.33828 6.63564 2.28979 6.7527 2.28979 6.87475C2.28979 6.99681 2.33828 7.11386 2.42459 7.20017C2.51089 7.28647 2.62795 7.33496 2.75 7.33496C2.87206 7.33496 2.98911 7.28647 3.07542 7.20017L5.5 4.771L7.92459 7.19559C8.01227 7.27067 8.12505 7.30991 8.2404 7.30545C8.35575 7.301 8.46518 7.25318 8.5468 7.17155C8.62843 7.08993 8.67625 6.9805 8.6807 6.86515C8.68516 6.7498 8.64592 6.63702 8.57084 6.54934L5.82084 3.79934C5.73547 3.71466 5.62024 3.66693 5.5 3.66642Z" fill="black" fill-opacity="0.74"/>
</g>
</svg>
